<?xml version="1.0" encoding="utf-8"?>
<!-- Generator: Adobe Illustrator 25.2.0, SVG Export Plug-In . SVG Version: 6.00 Build 0)  -->
<svg version="1.1" xmlns="http://www.w3.org/2000/svg" xmlns:xlink="http://www.w3.org/1999/xlink" x="0px" y="0px"
	 viewBox="0 0 100 100" style="enable-background:new 0 0 100 100;" xml:space="preserve">
<style type="text/css">
	.st0{fill:#7192A3;}
	.st1{fill:#124966;}
	.st2{fill-rule:evenodd;clip-rule:evenodd;fill:#7192A3;}
</style>
<g id="Layer_1">
	<path class="st0" d="M26.34,34.09c-4.22,0-7.64-3.45-7.64-7.7c0-4.25,3.42-7.71,7.64-7.71c4.22,0,7.64,3.45,7.64,7.71
		C33.99,30.64,30.56,34.09,26.34,34.09 M32.87,81.32H19.94V39.56h12.92V81.32z M41.13,81.32V39.56h12.4v5.62c0,0,3.73-6.9,12.58-6.9
		c8.85,0,15.19,5.41,15.19,16.59v26.44H68.44V59.4c0-6.01-2.28-9.37-7.04-9.37c-5.17,0-7.87,3.5-7.87,9.37v21.92H41.13z"/>
</g>
<g id="Layer_2">
</g>
</svg>
