<?xml version="1.0" encoding="utf-8"?>
<!-- Generator: Adobe Illustrator 25.2.0, SVG Export Plug-In . SVG Version: 6.00 Build 0)  -->
<svg version="1.1" xmlns="http://www.w3.org/2000/svg" xmlns:xlink="http://www.w3.org/1999/xlink" x="0px" y="0px"
	 viewBox="0 0 100 100" style="enable-background:new 0 0 100 100;" xml:space="preserve">
<style type="text/css">
	.st0{fill:#7192A3;}
	.st1{fill:#124966;}
	.st2{fill-rule:evenodd;clip-rule:evenodd;fill:#7192A3;}
</style>
<g id="Layer_1">
	<g>
		<path class="st0" d="M41.48,48.77v4.95c0,0.61,0.49,1.1,1.1,1.1h44.51c0.61,0,1.1-0.49,1.1-1.1v-4.95c0-0.61-0.49-1.1-1.1-1.1
			H42.58C41.97,47.67,41.48,48.16,41.48,48.77z"/>
		<path class="st0" d="M87.09,22.94H42.58c-0.61,0-1.1,0.49-1.1,1.1v4.95c0,0.61,0.49,1.1,1.1,1.1h44.51c0.61,0,1.1-0.49,1.1-1.1
			v-4.95C88.19,23.43,87.7,22.94,87.09,22.94z"/>
		<path class="st0" d="M87.09,79.54c0.61,0,1.1-0.49,1.1-1.1v-4.95c0-0.61-0.49-1.1-1.1-1.1H42.58c-0.61,0-1.1,0.49-1.1,1.1v4.95
			c0,0.61,0.49,1.1,1.1,1.1H87.09z"/>
		<path class="st0" d="M20.32,82.01c3.33,0,6.05-2.71,6.05-6.05s-2.71-6.05-6.05-6.05c-3.38,0-6.14,2.71-6.14,6.05
			S16.94,82.01,20.32,82.01z"/>
		<path class="st0" d="M15.07,24.51c-0.14-0.14-0.28-0.16-0.35-0.16c0,0,0,0,0,0c-0.07,0-0.22,0.02-0.34,0.14l-2.43,2.43
			c-0.18,0.18-0.19,0.47-0.03,0.66l0.09,0.09l7.29,7.26c0.21,0.2,0.57,0.2,0.81-0.02l13.54-13.55c0.19-0.19,0.19-0.5,0-0.7
			l-2.62-2.54c-0.12-0.12-0.27-0.14-0.34-0.14c0,0,0,0,0,0c-0.07,0-0.22,0.02-0.34,0.14L19.55,28.87L15.07,24.51z"/>
		<path class="st0" d="M33.65,45.35l-2.62-2.62c-0.12-0.12-0.27-0.14-0.34-0.14c0,0,0,0,0,0c-0.07,0-0.22,0.02-0.34,0.14
			l-10.8,10.81l-4.48-4.36c-0.2-0.2-0.51-0.2-0.7-0.02l-2.43,2.43c-0.17,0.17-0.19,0.42-0.06,0.61l0.13,0.14l7.27,7.27
			c0.21,0.2,0.57,0.2,0.8-0.02l13.56-13.56C33.84,45.84,33.84,45.54,33.65,45.35z"/>
	</g>
</g>
<g id="Layer_2">
</g>
</svg>
