<?xml version="1.0" encoding="utf-8"?>
<!-- Generator: Adobe Illustrator 25.2.0, SVG Export Plug-In . SVG Version: 6.00 Build 0)  -->
<svg version="1.1" xmlns="http://www.w3.org/2000/svg" xmlns:xlink="http://www.w3.org/1999/xlink" x="0px" y="0px"
	 viewBox="0 0 100 100" style="enable-background:new 0 0 100 100;" xml:space="preserve">
<style type="text/css">
	.st0{fill:#7192A3;}
	.st1{fill:#124966;}
	.st2{fill-rule:evenodd;clip-rule:evenodd;fill:#7192A3;}
</style>
<g id="Layer_1">
	<g id="_x32_88-sass">
		<g>
			<g>
				<path class="st0" d="M81.46,54.89c-3.05,0.01-5.69,0.75-7.9,1.84c-0.8-1.62-1.63-3.04-1.77-4.1c-0.16-1.24-0.34-1.97-0.15-3.45
					c0.19-1.47,1.05-3.55,1.03-3.7c-0.01-0.15-0.19-0.9-1.95-0.91c-1.76-0.01-3.27,0.34-3.45,0.8c-0.18,0.46-0.52,1.51-0.72,2.6
					c-0.31,1.59-3.51,7.29-5.32,10.25c-0.6-1.16-1.1-2.18-1.21-3c-0.16-1.24-0.34-1.97-0.15-3.45c0.19-1.47,1.05-3.55,1.03-3.7
					c-0.01-0.15-0.19-0.9-1.95-0.91c-1.76-0.01-3.27,0.34-3.45,0.8c-0.18,0.46-0.37,1.55-0.72,2.6c-0.35,1.05-4.62,10.53-5.73,12.99
					c-0.57,1.25-1.06,2.26-1.42,2.94c-0.05,0.11-0.1,0.18-0.12,0.23c0.04-0.07,0.07-0.14,0.07-0.11c-0.3,0.59-0.48,0.91-0.48,0.91
					v0.01c-0.23,0.44-0.49,0.83-0.61,0.83c-0.08,0-0.26-1.14,0.04-2.71c0.64-3.3,2.15-8.42,2.14-8.59c-0.01-0.1,0.29-0.98-0.99-1.46
					c-1.24-0.45-1.69,0.3-1.8,0.3c-0.11,0-0.19,0.27-0.19,0.27s1.38-5.77-2.64-5.77c-2.51,0-5.99,2.75-7.71,5.24
					c-1.08,0.59-3.4,1.85-5.86,3.2c-0.94,0.52-1.91,1.05-2.82,1.55c-0.07-0.07-0.12-0.14-0.19-0.2c-4.88-5.2-13.88-8.88-13.5-15.86
					C13.13,41.8,14.01,35.12,30.3,27c13.35-6.65,24.02-4.82,25.86-0.76c2.64,5.79-5.71,16.56-19.57,18.11
					c-5.28,0.59-8.06-1.46-8.76-2.22c-0.72-0.8-0.83-0.84-1.1-0.69c-0.45,0.25-0.16,0.95,0,1.38c0.41,1.08,2.11,2.98,5.01,3.94
					c2.55,0.83,8.74,1.29,16.23-1.61c8.42-3.24,14.97-12.27,13.05-19.83c-1.96-7.68-14.69-10.2-26.75-5.92
					c-7.18,2.55-14.94,6.55-20.52,11.77C7.12,37.36,6.06,42.77,6.5,45.03c1.55,8.02,12.61,13.25,17.04,17.12
					c-0.22,0.12-0.42,0.23-0.61,0.34C20.7,63.59,12.27,68,10.16,72.66c-2.38,5.28,0.39,9.07,2.22,9.59
					c5.69,1.58,11.52-1.27,14.65-5.94c3.13-4.67,2.75-10.77,1.31-13.55c-0.01-0.04-0.04-0.07-0.05-0.11
					c0.57-0.34,1.16-0.68,1.74-1.02c1.13-0.67,2.23-1.28,3.2-1.81c-0.54,1.47-0.94,3.24-1.14,5.8c-0.25,3,0.99,6.88,2.6,8.4
					c0.71,0.67,1.57,0.68,2.1,0.68c1.88,0,2.72-1.55,3.66-3.4c1.16-2.26,2.18-4.89,2.18-4.89s-1.28,7.11,2.22,7.11
					c1.28,0,2.56-1.65,3.13-2.49v0.01c0,0,0.03-0.05,0.1-0.16c0.14-0.2,0.2-0.33,0.2-0.33v-0.04c0.52-0.89,1.65-2.91,3.35-6.26
					c2.21-4.33,4.32-9.74,4.32-9.74s0.19,1.32,0.84,3.51c0.38,1.29,1.18,2.71,1.82,4.09c-0.52,0.71-0.83,1.12-0.83,1.12
					s0,0.01,0.01,0.03c-0.41,0.55-0.87,1.13-1.35,1.7c-1.74,2.07-3.81,4.44-4.09,5.12c-0.33,0.8-0.25,1.4,0.38,1.87
					c0.46,0.35,1.28,0.41,2.14,0.34c1.57-0.11,2.67-0.49,3.2-0.74c0.84-0.3,1.82-0.78,2.75-1.44c1.7-1.25,2.74-3.05,2.64-5.42
					c-0.05-1.31-0.48-2.61-0.99-3.84c0.15-0.22,0.31-0.45,0.46-0.68c2.7-3.94,4.78-8.25,4.78-8.25s0.19,1.32,0.84,3.51
					c0.33,1.1,0.97,2.32,1.55,3.5c-2.53,2.06-4.1,4.44-4.64,6.01c-1.01,2.9-0.22,4.21,1.27,4.51c0.67,0.14,1.62-0.18,2.33-0.48
					c0.89-0.3,1.95-0.78,2.94-1.51c1.7-1.25,3.35-3.01,3.24-5.39c-0.04-1.08-0.34-2.15-0.74-3.19c2.14-0.9,4.92-1.39,8.46-0.98
					c7.59,0.89,9.07,5.62,8.78,7.6c-0.29,1.99-1.88,3.08-2.41,3.4c-0.53,0.33-0.69,0.45-0.65,0.69c0.07,0.35,0.31,0.34,0.76,0.26
					c0.63-0.11,3.98-1.61,4.13-5.27C93.8,59.94,89.35,54.85,81.46,54.89L81.46,54.89z M23,74.59c-2.51,2.74-6.02,3.77-7.53,2.9
					c-1.62-0.94-0.98-4.97,2.11-7.88c1.88-1.77,4.3-3.4,5.91-4.41c0.37-0.22,0.9-0.54,1.55-0.94c0.11-0.07,0.16-0.1,0.16-0.1
					c0.12-0.08,0.26-0.15,0.39-0.23C26.73,68.07,25.64,71.72,23,74.59L23,74.59z M41.3,62.15c-0.87,2.14-2.71,7.59-3.83,7.3
					c-0.95-0.25-1.54-4.4-0.19-8.48c0.68-2.06,2.12-4.51,2.98-5.46c1.38-1.54,2.89-2.03,3.24-1.42
					C43.99,54.89,41.85,60.81,41.3,62.15L41.3,62.15z M56.42,69.36c-0.37,0.19-0.71,0.31-0.87,0.22c-0.12-0.07,0.15-0.33,0.15-0.33
					s1.89-2.03,2.64-2.96c0.44-0.54,0.94-1.18,1.48-1.89c0,0.07,0.01,0.14,0.01,0.22C59.82,67.06,57.48,68.71,56.42,69.36z
					 M68.08,66.71c-0.27-0.19-0.23-0.83,0.68-2.82c0.35-0.78,1.17-2.08,2.59-3.34c0.16,0.52,0.26,1.01,0.26,1.47
					C71.59,65.09,69.4,66.23,68.08,66.71L68.08,66.71z"/>
			</g>
		</g>
	</g>
</g>
<g id="Layer_2">
</g>
</svg>
