<?xml version="1.0" encoding="utf-8"?>
<!-- Generator: Adobe Illustrator 25.2.0, SVG Export Plug-In . SVG Version: 6.00 Build 0)  -->
<svg version="1.1" id="Layer_1" xmlns="http://www.w3.org/2000/svg" xmlns:xlink="http://www.w3.org/1999/xlink" x="0px" y="0px"
	 viewBox="0 0 100 100" style="enable-background:new 0 0 100 100;" xml:space="preserve">
<style type="text/css">
	.st0{fill:#66A99E;}
</style>
<g id="Layer_1_1_">
	<g id="_x32_88-sass">
		<g>
			<g>
				<path class="st0" d="M81.5,54.9c-3.1,0-5.7,0.8-7.9,1.8c-0.8-1.6-1.6-3-1.8-4.1c-0.2-1.2-0.3-2-0.2-3.5c0.2-1.5,1.1-3.5,1-3.7
					c0-0.2-0.2-0.9-1.9-0.9c-1.8,0-3.3,0.3-3.4,0.8s-0.5,1.5-0.7,2.6c-0.3,1.6-3.5,7.3-5.3,10.2c-0.6-1.2-1.1-2.2-1.2-3
					c-0.2-1.2-0.3-2-0.2-3.5c0.2-1.5,1-3.5,1-3.7s-0.2-0.9-2-0.9s-3.3,0.3-3.5,0.8s-0.4,1.5-0.7,2.6c-0.3,1-4.6,10.5-5.7,13
					c-0.6,1.2-1.1,2.3-1.4,2.9c0,0.1-0.1,0.2-0.1,0.2c0-0.1,0.1-0.1,0.1-0.1c-0.3,0.6-0.5,0.9-0.5,0.9l0,0c-0.2,0.4-0.5,0.8-0.6,0.8
					s-0.3-1.1,0-2.7c0.6-3.3,2.2-8.4,2.1-8.6c0-0.1,0.3-1-1-1.5c-1.2-0.5-1.7,0.3-1.8,0.3s-0.2,0.3-0.2,0.3s1.4-5.8-2.6-5.8
					c-2.5,0-6,2.8-7.7,5.2c-1.1,0.6-3.4,1.8-5.9,3.2c-0.9,0.5-1.9,1-2.8,1.5c-0.1-0.1-0.1-0.1-0.2-0.2C21.6,55,12.6,51.3,13,44.3
					c0.2-2.5,1-9.2,17.3-17.3c13.4-6.6,24-4.8,25.9-0.8c2.6,5.8-5.7,16.6-19.6,18.1c-5.3,0.6-8.1-1.5-8.8-2.2
					c-0.7-0.8-0.8-0.8-1.1-0.7c-0.5,0.2-0.2,1,0,1.4c0.4,1.1,2.1,3,5,3.9c2.6,0.8,8.7,1.3,16.2-1.6c8.4-3.2,15-12.3,13-19.8
					c-2-7.7-14.7-10.2-26.8-5.9c-7.2,2.5-14.9,6.5-20.5,11.8C7.1,37.4,6.1,42.8,6.5,45c1.6,8,12.6,13.2,17,17.1
					c-0.2,0.1-0.4,0.2-0.6,0.3c-2.2,1.1-10.7,5.5-12.8,10.2c-2.4,5.3,0.4,9.1,2.2,9.6c5.7,1.6,11.5-1.3,14.6-5.9
					c3.1-4.7,2.8-10.8,1.3-13.5v-0.1c0.6-0.3,1.2-0.7,1.7-1c1.1-0.7,2.2-1.3,3.2-1.8c-0.5,1.5-0.9,3.2-1.1,5.8c-0.2,3,1,6.9,2.6,8.4
					c0.7,0.7,1.6,0.7,2.1,0.7c1.9,0,2.7-1.6,3.7-3.4c1.2-2.3,2.2-4.9,2.2-4.9s-1.3,7.1,2.2,7.1c1.3,0,2.6-1.7,3.1-2.5l0,0
					c0,0,0-0.1,0.1-0.2c0.1-0.2,0.2-0.3,0.2-0.3l0,0c0.5-0.9,1.7-2.9,3.3-6.3c2.2-4.3,4.3-9.7,4.3-9.7s0.2,1.3,0.8,3.5
					c0.4,1.3,1.2,2.7,1.8,4.1c-0.5,0.7-0.8,1.1-0.8,1.1l0,0c-0.4,0.5-0.9,1.1-1.3,1.7c-1.7,2.1-3.8,4.4-4.1,5.1
					c-0.3,0.8-0.2,1.4,0.4,1.9c0.5,0.3,1.3,0.4,2.1,0.3c1.6-0.1,2.7-0.5,3.2-0.7c0.8-0.3,1.8-0.8,2.8-1.4c1.7-1.2,2.7-3.1,2.6-5.4
					c0-1.3-0.5-2.6-1-3.8c0.2-0.2,0.3-0.5,0.5-0.7c2.7-3.9,4.8-8.2,4.8-8.2s0.2,1.3,0.8,3.5c0.3,1.1,1,2.3,1.6,3.5
					c-2.5,2.1-4.1,4.4-4.6,6c-1,2.9-0.2,4.2,1.3,4.5c0.7,0.1,1.6-0.2,2.3-0.5c0.9-0.3,1.9-0.8,2.9-1.5c1.7-1.2,3.3-3,3.2-5.4
					c0-1.1-0.3-2.2-0.7-3.2c2.1-0.9,4.9-1.4,8.5-1c7.6,0.9,9.1,5.6,8.8,7.6c-0.3,2-1.9,3.1-2.4,3.4s-0.7,0.4-0.7,0.7
					c0.1,0.3,0.3,0.3,0.8,0.3c0.6-0.1,4-1.6,4.1-5.3C93.8,59.9,89.3,54.8,81.5,54.9L81.5,54.9z M23,74.6c-2.5,2.7-6,3.8-7.5,2.9
					c-1.6-0.9-1-5,2.1-7.9c1.9-1.8,4.3-3.4,5.9-4.4c0.4-0.2,0.9-0.5,1.5-0.9c0.1-0.1,0.2-0.1,0.2-0.1c0.1-0.1,0.3-0.2,0.4-0.2
					C26.7,68.1,25.6,71.7,23,74.6L23,74.6z M41.3,62.2c-0.9,2.1-2.7,7.6-3.8,7.3c-1-0.2-1.5-4.4-0.2-8.5c0.7-2.1,2.1-4.5,3-5.5
					c1.4-1.5,2.9-2,3.2-1.4C44,54.9,41.8,60.8,41.3,62.2L41.3,62.2z M56.4,69.4c-0.4,0.2-0.7,0.3-0.9,0.2c-0.1-0.1,0.2-0.3,0.2-0.3
					s1.9-2,2.6-3c0.4-0.5,0.9-1.2,1.5-1.9c0,0.1,0,0.1,0,0.2C59.8,67.1,57.5,68.7,56.4,69.4z M68.1,66.7c-0.3-0.2-0.2-0.8,0.7-2.8
					c0.3-0.8,1.2-2.1,2.6-3.3c0.2,0.5,0.3,1,0.3,1.5C71.6,65.1,69.4,66.2,68.1,66.7L68.1,66.7z"/>
			</g>
		</g>
	</g>
</g>
<g id="Layer_2_1_">
</g>
</svg>
