<?xml version="1.0" encoding="utf-8"?>
<!-- Generator: Adobe Illustrator 25.2.0, SVG Export Plug-In . SVG Version: 6.00 Build 0)  -->
<svg version="1.1" xmlns="http://www.w3.org/2000/svg" xmlns:xlink="http://www.w3.org/1999/xlink" x="0px" y="0px"
	 viewBox="0 0 100 100" style="enable-background:new 0 0 100 100;" xml:space="preserve">
<style type="text/css">
	.st0{fill:#7192A3;}
	.st1{fill:#124966;}
	.st2{fill-rule:evenodd;clip-rule:evenodd;fill:#7192A3;}
</style>
<g id="Layer_1">
	<path class="st0" d="M11.33,11.33v77.34h77.34V11.33H11.33z M53.42,71.65c0,7.53-4.42,10.96-10.86,10.96c-5.82,0-9.18-3-10.91-6.65
		l5.92-3.57c1.14,2.02,2.18,3.73,4.68,3.73c2.38,0,3.9-0.93,3.9-4.57v-24.7h7.27V71.65L53.42,71.65z M70.61,82.61
		c-6.75,0-11.12-3.21-13.24-7.42l5.92-3.42c1.55,2.54,3.59,4.42,7.16,4.42c3,0,4.94-1.5,4.94-3.59c0-2.49-1.97-3.37-5.3-4.83
		l-1.81-0.78c-5.25-2.23-8.72-5.04-8.72-10.96c0-5.45,4.16-9.6,10.63-9.6c4.63,0,7.94,1.61,10.32,5.82l-5.66,3.63
		c-1.24-2.23-2.59-3.11-4.68-3.11c-2.12,0-3.47,1.35-3.47,3.11c0,2.18,1.35,3.06,4.47,4.42l1.81,0.78
		c6.18,2.64,9.65,5.35,9.65,11.43C82.64,79.02,77.5,82.61,70.61,82.61L70.61,82.61z"/>
</g>
<g id="Layer_2">
</g>
</svg>
