<?xml version="1.0" encoding="utf-8"?>
<!-- Generator: Adobe Illustrator 25.2.0, SVG Export Plug-In . SVG Version: 6.00 Build 0)  -->
<svg version="1.1" xmlns="http://www.w3.org/2000/svg" xmlns:xlink="http://www.w3.org/1999/xlink" x="0px" y="0px"
	 viewBox="0 0 100 100" style="enable-background:new 0 0 100 100;" xml:space="preserve">
<style type="text/css">
	.st0{fill:#7192A3;}
	.st1{fill:#124966;}
	.st2{fill-rule:evenodd;clip-rule:evenodd;fill:#7192A3;}
</style>
<g id="Layer_1">
	<g>
		<circle class="st0" cx="50.02" cy="49.9" r="8.73"/>
		<g>
			<path class="st0" d="M50.02,69.91c-12.27,0-22.98-1.44-31-4.19c-5.2-1.77-9.62-4.14-12.77-6.84c-3.34-2.85-5.12-5.97-5.12-8.98
				c0-5.78,6.33-11.43,16.96-15.12c8.7-3.03,20.04-4.72,31.91-4.72c11.66,0,22.84,1.64,31.49,4.63c5.06,1.74,9.33,4,12.35,6.51
				c3.29,2.75,5.03,5.76,5.03,8.7c0,6-7.08,12.07-18.49,15.85C72.31,68.43,61.52,69.91,50.02,69.91z M50.02,34.24
				c-11.26,0-22.39,1.64-30.53,4.47C9.7,42.13,5.32,46.79,5.32,49.9c0,3.24,4.72,8.33,15.05,11.87c7.59,2.59,17.85,3.97,29.65,3.97
				c11.07,0,21.38-1.39,29.06-3.95c10.74-3.57,15.64-8.66,15.64-11.88c0-1.65-1.25-3.6-3.53-5.5c-2.63-2.19-6.45-4.19-11.03-5.78
				C71.92,35.81,61.22,34.24,50.02,34.24z"/>
		</g>
		<g>
			<path class="st0" d="M30.2,93.43c-1.77,0-3.34-0.38-4.66-1.15c-4.99-2.89-6.73-11.2-4.63-22.25c1.72-9.06,5.93-19.71,11.87-30
				C38.6,29.95,45.6,21.07,52.51,15.07c4.04-3.51,8.13-6.09,11.81-7.45c4.02-1.48,7.5-1.48,10.04-0.02
				c5.2,2.99,6.92,12.18,4.49,23.94c-1.72,8.35-5.83,18.43-11.57,28.39C61.15,70.56,54.54,79.12,48.16,84.7
				c-4.14,3.62-8.4,6.26-12.3,7.64C33.82,93.07,31.91,93.43,30.2,93.43z M34.57,41.08l1.81,1.04C30.76,51.87,26.6,62.33,25,70.82
				c-1.93,10.18-0.07,16.3,2.61,17.85c0.66,0.38,1.53,0.59,2.59,0.59c3.46,0,8.91-2.19,15.21-7.69c6.04-5.27,12.35-13.48,18.25-23.7
				c5.53-9.59,9.46-19.23,11.1-27.14c2.28-11.08,0.31-17.87-2.49-19.49c-1.43-0.82-3.74-0.71-6.52,0.31
				c-3.22,1.18-6.86,3.5-10.51,6.68c-6.56,5.71-13.26,14.2-18.86,23.91L34.57,41.08z"/>
		</g>
		<g>
			<path class="st0" d="M69.83,93.49c-4.73,0-10.74-2.85-17-8.25c-6.99-6.02-14.11-14.98-20.06-25.26l0,0
				C26.93,49.89,22.75,39.39,21,30.4c-1.03-5.25-1.22-10.07-0.56-13.95c0.73-4.23,2.45-7.24,5.01-8.72
				c5.18-3.01,14.01,0.09,22.98,8.07C54.8,21.46,61.48,30.05,67.24,40c6.14,10.61,10.27,20.62,11.9,28.93
				c1.06,5.39,1.24,10.4,0.49,14.48c-0.8,4.33-2.61,7.41-5.22,8.93C73.11,93.1,71.56,93.49,69.83,93.49z M36.39,57.89
				c5.64,9.74,12.63,18.56,19.17,24.18c7.85,6.75,14.08,8.21,16.77,6.65c2.8-1.62,4.85-8.25,2.73-18.96
				c-1.57-7.86-5.52-17.43-11.43-27.65c-5.55-9.59-11.94-17.82-17.97-23.18c-8.46-7.52-15.31-9.2-18.11-7.59
				c-1.43,0.82-2.49,2.89-2.99,5.81c-0.57,3.38-0.4,7.69,0.54,12.44C26.77,38.14,30.77,48.18,36.39,57.89L36.39,57.89z"/>
		</g>
	</g>
</g>
<g id="Layer_2">
</g>
</svg>
