<?xml version="1.0" encoding="utf-8"?>
<!-- Generator: Adobe Illustrator 25.2.0, SVG Export Plug-In . SVG Version: 6.00 Build 0)  -->
<svg version="1.1" id="Layer_1" xmlns="http://www.w3.org/2000/svg" xmlns:xlink="http://www.w3.org/1999/xlink" x="0px" y="0px"
	 viewBox="0 0 100 100" style="enable-background:new 0 0 100 100;" xml:space="preserve">
<style type="text/css">
	.st0{fill:#79A4A5;}
</style>
<g id="Layer_1_1_">
	<g>
		<circle class="st0" cx="50" cy="49.9" r="8.7"/>
		<g>
			<path class="st0" d="M50,69.9c-12.3,0-23-1.4-31-4.2c-5.2-1.8-9.6-4.1-12.8-6.8c-3.3-2.8-5.1-6-5.1-9c0-5.8,6.3-11.4,17-15.1
				c8.7-3,20-4.7,31.9-4.7c11.7,0,22.8,1.6,31.5,4.6c5.1,1.7,9.3,4,12.3,6.5c3.3,2.8,5,5.8,5,8.7c0,6-7.1,12.1-18.5,15.9
				C72.3,68.4,61.5,69.9,50,69.9z M50,34.2c-11.3,0-22.4,1.6-30.5,4.5C9.7,42.1,5.3,46.8,5.3,49.9c0,3.2,4.7,8.3,15.1,11.9
				c7.6,2.6,17.9,4,29.6,4c11.1,0,21.4-1.4,29.1-4c10.7-3.6,15.6-8.7,15.6-11.9c0-1.7-1.2-3.6-3.5-5.5c-2.6-2.2-6.4-4.2-11-5.8
				C71.9,35.8,61.2,34.2,50,34.2z"/>
		</g>
		<g>
			<path class="st0" d="M30.2,93.4c-1.8,0-3.3-0.4-4.7-1.2c-5-2.9-6.7-11.2-4.6-22.2c1.7-9.1,5.9-19.7,11.9-30
				c5.8-10.1,12.8-19,19.7-25c4-3.5,8.1-6.1,11.8-7.4c4-1.5,7.5-1.5,10,0c5.2,3,6.9,12.2,4.5,23.9C77.1,39.9,73,50,67.3,59.9
				c-6.1,10.6-12.7,19.2-19.1,24.8c-4.1,3.6-8.4,6.3-12.3,7.6C33.8,93.1,31.9,93.4,30.2,93.4z M34.6,41.1l1.8,1
				c-5.6,9.7-9.8,20.2-11.4,28.7c-1.9,10.2-0.1,16.3,2.6,17.8c0.7,0.4,1.5,0.6,2.6,0.6c3.5,0,8.9-2.2,15.2-7.7
				c6-5.3,12.4-13.5,18.2-23.7c5.5-9.6,9.5-19.2,11.1-27.1c2.3-11.1,0.3-17.9-2.5-19.5c-1.4-0.8-3.7-0.7-6.5,0.3
				c-3.2,1.2-6.9,3.5-10.5,6.7C48.7,23.9,42,32.4,36.4,42.1L34.6,41.1z"/>
		</g>
		<g>
			<path class="st0" d="M69.8,93.5c-4.7,0-10.7-2.8-17-8.2c-7-6-14.1-15-20.1-25.3l0,0c-5.8-10.1-10-20.6-11.8-29.6
				c-1-5.2-1.2-10.1-0.6-13.9c0.7-4.2,2.5-7.2,5-8.7c5.2-3,14,0.1,23,8.1c6.4,5.7,13,14.2,18.8,24.2c6.1,10.6,10.3,20.6,11.9,28.9
				c1.1,5.4,1.2,10.4,0.5,14.5c-0.8,4.3-2.6,7.4-5.2,8.9C73.1,93.1,71.6,93.5,69.8,93.5z M36.4,57.9C42,67.6,49,76.4,55.6,82.1
				c7.8,6.8,14.1,8.2,16.8,6.7c2.8-1.6,4.8-8.2,2.7-19c-1.6-7.9-5.5-17.4-11.4-27.7c-5.5-9.6-11.9-17.8-18-23.2
				c-8.5-7.5-15.3-9.2-18.1-7.6c-1.4,0.8-2.5,2.9-3,5.8c-0.6,3.4-0.4,7.7,0.5,12.4C26.8,38.1,30.8,48.2,36.4,57.9L36.4,57.9z"/>
		</g>
	</g>
</g>
<g id="Layer_2_1_">
</g>
</svg>
