<?xml version="1.0" encoding="utf-8"?>
<!-- Generator: Adobe Illustrator 25.2.0, SVG Export Plug-In . SVG Version: 6.00 Build 0)  -->
<svg version="1.1" id="Layer_1" xmlns="http://www.w3.org/2000/svg" xmlns:xlink="http://www.w3.org/1999/xlink" x="0px" y="0px"
	 viewBox="0 0 100 100" style="enable-background:new 0 0 100 100;" xml:space="preserve">
<style type="text/css">
	.st0{fill:#79A4A5;}
</style>
<g id="Layer_1_1_">
	<g>
		<path class="st0" d="M50,14.4c-19.7,0-35.7,16-35.7,35.7c0,19.7,16,35.6,35.7,35.6c19.7,0,35.6-16,35.6-35.6
			C85.6,30.3,69.7,14.4,50,14.4z M50,25.2c2.7,0,5,2.2,5,5c0,2.8-2.2,5-5,5c-2.8,0-5-2.2-5-5C45,27.4,47.2,25.2,50,25.2z M72.3,42.5
			H57.5v32.3h-5V59.9h-5v14.9h-5V42.5H27.6v-5h44.7V42.5z"/>
		<path class="st0" d="M50,7.5C26.6,7.5,7.5,26.6,7.5,50c0,23.4,19.1,42.5,42.5,42.5c23.4,0,42.5-19.1,42.5-42.5
			C92.5,26.6,73.4,7.5,50,7.5z M50,88.8c-21.4,0-38.8-17.4-38.8-38.8c0-21.4,17.4-38.8,38.8-38.8c21.4,0,38.8,17.4,38.8,38.8
			C88.8,71.4,71.4,88.8,50,88.8z"/>
	</g>
</g>
<g id="Layer_2_1_">
</g>
</svg>
