<?xml version="1.0" encoding="utf-8"?>
<!-- Generator: Adobe Illustrator 25.2.0, SVG Export Plug-In . SVG Version: 6.00 Build 0)  -->
<svg version="1.1" id="Layer_1" xmlns="http://www.w3.org/2000/svg" xmlns:xlink="http://www.w3.org/1999/xlink" x="0px" y="0px"
	 viewBox="0 0 100 100" style="enable-background:new 0 0 100 100;" xml:space="preserve">
<style type="text/css">
	.st0{fill:#66A99E;}
</style>
<g id="Layer_1_1_">
	<path class="st0" d="M22.4,62.5l8.1-51.9c0.1-1,1.1-1.7,2.1-1.6c0.6,0.1,1.1,0.4,1.4,1l8.7,16.3L22.4,62.5z M79.6,75.1l-7.7-47.7
		c-0.2-1-1.1-1.7-2.1-1.5c-0.4,0.1-0.7,0.2-1,0.5L20.4,75.1l26.8,15.1c1.7,0.9,3.7,0.9,5.4,0L79.6,75.1z M57.8,33.5l-6.2-11.9
		c-0.5-0.9-1.6-1.2-2.5-0.8c-0.3,0.2-0.6,0.5-0.8,0.8L21.1,70.4L57.8,33.5z"/>
</g>
<g id="Layer_2_1_">
</g>
</svg>
