<?xml version="1.0" encoding="utf-8"?>
<!-- Generator: Adobe Illustrator 25.2.0, SVG Export Plug-In . SVG Version: 6.00 Build 0)  -->
<svg version="1.1" id="Layer_1" xmlns="http://www.w3.org/2000/svg" xmlns:xlink="http://www.w3.org/1999/xlink" x="0px" y="0px"
	 viewBox="0 0 100 100" style="enable-background:new 0 0 100 100;" xml:space="preserve">
<style type="text/css">
	.st0{fill:#79A4A5;}
</style>
<g id="Layer_1_1_">
	<path class="st0" d="M81.9,21.9H18.1c-4.1,0-7.4,3.3-7.4,7.4v44.2c0,4.1,3.3,7.4,7.4,7.4h63.8c4.1,0,7.4-3.3,7.4-7.4V29.3
		C89.3,25.2,86,21.9,81.9,21.9z M18.1,45c3,2.4,7.1,5.6,13,10.2c-5.9,4.6-10,7.8-13,10.2V45z M19.9,73.5c3.3-2.7,8.3-6.6,17.1-13.5
		c3.4,2.8,8,6.2,13,6.1c5,0,9.6-3.3,13-6.2c8.8,6.9,13.8,10.9,17.1,13.5C80.2,73.5,19.9,73.5,19.9,73.5z M81.9,65.5
		c-3-2.4-7.1-5.6-13-10.2c5.9-4.6,10-7.8,13-10.2V65.5z M81.9,35.5c-3.3,2.7-8.4,6.7-18.9,15c-0.6,0.5-1.2,0.9-1.8,1.4
		c-1,0.8-2.5,2.1-4.1,3.3c-2.4,1.8-5,3.5-7.2,3.5c-2.1,0-4.8-1.7-7.2-3.5h0c-1.6-1.2-3-2.5-4.1-3.3c-0.6-0.5-1.2-0.9-1.8-1.4
		c-10.5-8.2-15.6-12.3-18.9-15v-6.3h63.8L81.9,35.5L81.9,35.5z"/>
</g>
<g id="Layer_2_1_">
</g>
</svg>
