<?xml version="1.0" encoding="utf-8"?>
<!-- Generator: Adobe Illustrator 25.2.0, SVG Export Plug-In . SVG Version: 6.00 Build 0)  -->
<svg version="1.1" id="Layer_1" xmlns="http://www.w3.org/2000/svg" xmlns:xlink="http://www.w3.org/1999/xlink" x="0px" y="0px"
	 viewBox="0 0 100 100" style="enable-background:new 0 0 100 100;" xml:space="preserve">
<style type="text/css">
	.st0{fill:#79A4A5;}
</style>
<g id="Layer_1_1_">
	<g>
		<path class="st0" d="M99.3,74v-6.9l-5.9-1.9c-0.3-1.3-0.9-2.5-1.5-3.8l2.8-5.6l-4.9-4.9l-5.6,2.8c-1.2-0.6-2.4-1.1-3.8-1.5
			l-1.9-5.9h-6.9l-1.9,5.9c-1.3,0.3-2.5,0.9-3.8,1.5l-5.6-2.8l-4.9,4.9l2.8,5.6c-0.6,1.2-1.1,2.4-1.5,3.8l-5.9,1.9V74l5.9,1.9
			c0.3,1.3,0.9,2.5,1.5,3.8l-2.8,5.6l4.9,4.9l5.6-2.8c1.2,0.6,2.4,1.1,3.8,1.5l1.9,5.9h6.9l1.9-5.9c1.3-0.3,2.5-0.9,3.8-1.5l5.6,2.8
			l4.9-4.9l-2.8-5.6c0.6-1.2,1.1-2.4,1.5-3.8L99.3,74z M75.1,82c-6.3,0-11.5-5.2-11.5-11.5c0-6.3,5.2-11.5,11.5-11.5
			c6.3,0,11.5,5.2,11.5,11.5C86.6,76.8,81.4,82,75.1,82z"/>
		<polygon class="st0" points="71.3,42.9 78.7,42.9 84.9,36.7 60,11.8 56.3,15.5 77.6,36.7 		"/>
		<polygon class="st0" points="28.7,11.8 3.8,36.7 28.7,61.6 32.3,57.9 11.1,36.7 32.3,15.5 		"/>
	</g>
</g>
<g id="Layer_2_1_">
</g>
</svg>
