<?xml version="1.0" encoding="utf-8"?>
<!-- Generator: Adobe Illustrator 25.2.0, SVG Export Plug-In . SVG Version: 6.00 Build 0)  -->
<svg version="1.1" id="Layer_1" xmlns="http://www.w3.org/2000/svg" xmlns:xlink="http://www.w3.org/1999/xlink" x="0px" y="0px"
	 viewBox="0 0 100 100" style="enable-background:new 0 0 100 100;" xml:space="preserve">
<style type="text/css">
	.st0{fill:#66A99E;}
</style>
<g id="Layer_1_1_">
	<g>
		<path class="st0" d="M84.4,11.5H15.6c-4.5,0-8.1,3.6-8.1,8.1v48.6c0,4.5,3.6,8.1,8.1,8.1h26l-1.3,8.1h-6.4c-1.1,0-2,0.9-2,2
			s0.9,2,2,2h24.3l0,0h8.1c1.1,0,2-0.9,2-2s-0.9-2-2-2h-6.4l-1.3-8.1h26c4.5,0,8.1-3.6,8.1-8.1V19.6C92.5,15.2,88.9,11.5,84.4,11.5z
			 M44.3,84.4l1.3-8.1h8.7l1.3,8.1H44.3z M88.5,68.2c0,2.2-1.8,4.1-4.1,4.1H15.6c-2.2,0-4.1-1.8-4.1-4.1v-4.1h76.9L88.5,68.2
			L88.5,68.2z M88.5,60.1h-77V19.6c0-2.2,1.8-4.1,4.1-4.1h68.8c2.2,0,4.1,1.8,4.1,4.1V60.1z M50,70.2c0.5,0,1-0.2,1.4-0.6
			s0.6-0.9,0.6-1.4s-0.2-1.1-0.6-1.4c-0.8-0.8-2.1-0.8-2.9,0c-0.4,0.4-0.6,0.9-0.6,1.4s0.2,1.1,0.6,1.4C49,70,49.5,70.2,50,70.2z
			 M69.9,22.5c-0.8-1.1-2.6-1.1-3.4,0l-8.1,12.1c-0.2,0.3-0.3,0.7-0.3,1.1V52c0,1.1,0.9,2,2,2s2-0.9,2-2V39.9h4V52c0,1.1,0.9,2,2,2
			s2-0.9,2-2V39.9h4.1V52c0,1.1,0.9,2,2,2s2-0.9,2-2V35.8c0-0.4-0.1-0.8-0.3-1.1L69.9,22.5z M62.6,35.8l4-6.1h3.2l4.1,6.1H62.6z
			 M48,25.7H23.7c-1.1,0-2,0.9-2,2s0.9,2,2,2H48c1.1,0,2-0.9,2-2S49.1,25.7,48,25.7z M48,35.8H23.7c-1.1,0-2,0.9-2,2s0.9,2,2,2H48
			c1.1,0,2-0.9,2-2S49.1,35.8,48,35.8z M37.8,46H23.7c-1.1,0-2,0.9-2,2s0.9,2,2,2h14.2c1.1,0,2-0.9,2-2S39,46,37.8,46z"/>
	</g>
</g>
<g id="Layer_2_1_">
</g>
</svg>
