<?xml version="1.0" encoding="utf-8"?>
<!-- Generator: Adobe Illustrator 25.2.0, SVG Export Plug-In . SVG Version: 6.00 Build 0)  -->
<svg version="1.1" xmlns="http://www.w3.org/2000/svg" xmlns:xlink="http://www.w3.org/1999/xlink" x="0px" y="0px"
	 viewBox="0 0 100 100" style="enable-background:new 0 0 100 100;" xml:space="preserve">
<style type="text/css">
	.st0{fill:#7192A3;}
	.st1{fill:#124966;}
	.st2{fill-rule:evenodd;clip-rule:evenodd;fill:#7192A3;}
</style>
<g id="Layer_1">
	<g>
		<path class="st0" d="M99.32,73.96v-6.91l-5.9-1.93c-0.3-1.32-0.92-2.54-1.52-3.76l2.85-5.59l-4.88-4.88l-5.59,2.85
			c-1.22-0.61-2.44-1.12-3.76-1.53l-1.93-5.9h-6.91l-1.93,5.9c-1.32,0.31-2.54,0.92-3.76,1.53l-5.59-2.85l-4.88,4.88l2.85,5.59
			c-0.61,1.22-1.12,2.44-1.53,3.76l-5.9,1.93v6.91l5.9,1.93c0.31,1.32,0.92,2.54,1.53,3.76l-2.85,5.59l4.88,4.88l5.59-2.85
			c1.22,0.61,2.44,1.12,3.76,1.53l1.93,5.9h6.91l1.93-5.9c1.32-0.31,2.54-0.92,3.76-1.53l5.59,2.85l4.88-4.88l-2.85-5.59
			c0.61-1.22,1.12-2.44,1.52-3.76L99.32,73.96z M75.12,81.99c-6.3,0-11.49-5.19-11.49-11.49c0-6.3,5.19-11.49,11.49-11.49
			c6.3,0,11.49,5.19,11.49,11.49C86.61,76.81,81.43,81.99,75.12,81.99z"/>
		<polygon class="st0" points="71.34,42.92 78.67,42.92 84.89,36.71 60,11.82 56.34,15.49 77.55,36.71 		"/>
		<polygon class="st0" points="28.68,11.82 3.79,36.71 28.68,61.59 32.34,57.92 11.13,36.71 32.34,15.49 		"/>
	</g>
</g>
<g id="Layer_2">
</g>
</svg>
