<?xml version="1.0" encoding="utf-8"?>
<!-- Generator: Adobe Illustrator 25.2.0, SVG Export Plug-In . SVG Version: 6.00 Build 0)  -->
<svg version="1.1" id="Layer_1" xmlns="http://www.w3.org/2000/svg" xmlns:xlink="http://www.w3.org/1999/xlink" x="0px" y="0px"
	 viewBox="0 0 100 100" style="enable-background:new 0 0 100 100;" xml:space="preserve">
<style type="text/css">
	.st0{fill:#79A4A5;}
</style>
<g id="Layer_1_1_">
	<g>
		<path class="st0" d="M41.5,48.8v5c0,0.6,0.5,1.1,1.1,1.1h44.5c0.6,0,1.1-0.5,1.1-1.1v-5c0-0.6-0.5-1.1-1.1-1.1H42.6
			C42,47.7,41.5,48.2,41.5,48.8z"/>
		<path class="st0" d="M87.1,22.9H42.6c-0.6,0-1.1,0.5-1.1,1.1v5c0,0.6,0.5,1.1,1.1,1.1h44.5c0.6,0,1.1-0.5,1.1-1.1v-5
			C88.2,23.4,87.7,22.9,87.1,22.9z"/>
		<path class="st0" d="M87.1,79.5c0.6,0,1.1-0.5,1.1-1.1v-4.9c0-0.6-0.5-1.1-1.1-1.1H42.6c-0.6,0-1.1,0.5-1.1,1.1v4.9
			c0,0.6,0.5,1.1,1.1,1.1H87.1z"/>
		<path class="st0" d="M20.3,82c3.3,0,6-2.7,6-6.1s-2.7-6.1-6-6.1c-3.4,0-6.1,2.7-6.1,6.1S16.9,82,20.3,82z"/>
		<path class="st0" d="M15.1,24.5c-0.1-0.1-0.3-0.2-0.4-0.2l0,0c-0.1,0-0.2,0-0.3,0.1l-2.4,2.4c-0.2,0.2-0.2,0.5,0,0.7l0.1,0.1
			l7.3,7.3c0.2,0.2,0.6,0.2,0.8,0l13.5-13.5c0.2-0.2,0.2-0.5,0-0.7L31,18.1C30.9,18,30.8,18,30.7,18l0,0c-0.1,0-0.2,0-0.3,0.1
			L19.5,28.9L15.1,24.5z"/>
		<path class="st0" d="M33.7,45.3L31,42.7c-0.1-0.1-0.3-0.1-0.3-0.1l0,0c-0.1,0-0.2,0-0.3,0.1L19.6,53.5l-4.5-4.4
			c-0.2-0.2-0.5-0.2-0.7,0l-2.4,2.4c-0.2,0.2-0.2,0.4-0.1,0.6l0.1,0.1l7.3,7.3c0.2,0.2,0.6,0.2,0.8,0L33.6,46
			C33.8,45.8,33.8,45.5,33.7,45.3z"/>
	</g>
</g>
<g id="Layer_2_1_">
</g>
</svg>
