<?xml version="1.0" encoding="utf-8"?>
<!-- Generator: Adobe Illustrator 25.2.0, SVG Export Plug-In . SVG Version: 6.00 Build 0)  -->
<svg version="1.1" id="Layer_1" xmlns="http://www.w3.org/2000/svg" xmlns:xlink="http://www.w3.org/1999/xlink" x="0px" y="0px"
	 viewBox="0 0 100 100" style="enable-background:new 0 0 100 100;" xml:space="preserve">
<style type="text/css">
	.st0{fill:#66A99E;}
</style>
<g id="Layer_1_1_">
	<g>
		<path class="st0" d="M78.8,27.4l2.4-2.4c1.5-1.5,1.5-3.8,0-5.3s-3.8-1.5-5.3,0l-2.4,2.4c-2.7-0.8-5.6,0-7.6,2L22.1,67.9
			c-0.2,0.2-0.3,0.4-0.4,0.6l-4.4,13.2c-0.3,0.8,0.2,1.7,1,1.9c0.3,0.1,0.6,0.1,1,0l13.2-4.4c0.2-0.1,0.4-0.2,0.6-0.4L76.9,35
			c1.5-1.5,2.3-3.4,2.3-5.5C79.2,28.8,79,28.1,78.8,27.4z M78.2,21.8c0.2-0.2,0.7-0.2,0.9,0s0.2,0.7,0,0.9l0,0l-1.7,1.7L76.9,24
			l-0.5-0.5L78.2,21.8z M31.1,76.4l-9.9,3.3l3.3-9.9l43.6-43.6c1.4-1.4,3.5-1.7,5.3-0.9c0.8,0.3,1.4,0.9,1.9,1.6
			c0.2,0.2,0.3,0.5,0.4,0.8c0.8,1.8,0.4,3.8-1,5.1L31.1,76.4z"/>
		<path class="st0" d="M73.1,27.9c-0.6-0.6-1.6-0.6-2.2,0L26.5,72.2c-0.6,0.6-0.6,1.6,0,2.2s1.6,0.6,2.2,0L73.1,30
			C73.7,29.4,73.7,28.5,73.1,27.9z"/>
	</g>
</g>
<g id="Layer_2_1_">
</g>
</svg>
