<?xml version="1.0" encoding="utf-8"?>
<!-- Generator: Adobe Illustrator 25.2.0, SVG Export Plug-In . SVG Version: 6.00 Build 0)  -->
<svg version="1.1" id="Layer_1" xmlns="http://www.w3.org/2000/svg" xmlns:xlink="http://www.w3.org/1999/xlink" x="0px" y="0px"
	 viewBox="0 0 100 100" style="enable-background:new 0 0 100 100;" xml:space="preserve">
<style type="text/css">
	.st0{fill:#66A99E;}
</style>
<g id="Layer_1_1_">
	<g>
		<path class="st0" d="M50,14.4c-19.7,0-35.7,16-35.7,35.7s16,35.6,35.7,35.6s35.6-16,35.6-35.6C85.6,30.3,69.7,14.4,50,14.4z
			 M50,25.2c2.7,0,5,2.2,5,5s-2.2,5-5,5s-5-2.2-5-5S47.2,25.2,50,25.2z M72.3,42.5H57.5v32.3h-5V59.9h-5v14.9h-5V42.5H27.6v-5h44.7
			V42.5z"/>
		<path class="st0" d="M50,7.5C26.6,7.5,7.5,26.6,7.5,50S26.6,92.5,50,92.5S92.5,73.4,92.5,50S73.4,7.5,50,7.5z M50,88.8
			c-21.4,0-38.8-17.4-38.8-38.8S28.6,11.2,50,11.2S88.8,28.6,88.8,50S71.4,88.8,50,88.8z"/>
	</g>
</g>
<g id="Layer_2_1_">
</g>
</svg>
