<?xml version="1.0" encoding="utf-8"?>
<!-- Generator: Adobe Illustrator 25.2.0, SVG Export Plug-In . SVG Version: 6.00 Build 0)  -->
<svg version="1.1" id="Layer_1" xmlns="http://www.w3.org/2000/svg" xmlns:xlink="http://www.w3.org/1999/xlink" x="0px" y="0px"
	 viewBox="0 0 100 100" style="enable-background:new 0 0 100 100;" xml:space="preserve">
<style type="text/css">
	.st0{fill:#66A99E;}
</style>
<g id="Layer_1_1_">
	<path class="st0" d="M11.3,11.3v77.3h77.3V11.3H11.3z M53.4,71.7c0,7.5-4.4,11-10.9,11c-5.8,0-9.2-3-10.9-6.7l5.9-3.6
		c1.1,2,2.2,3.7,4.7,3.7c2.4,0,3.9-0.9,3.9-4.6V46.9h7.3V71.7L53.4,71.7z M70.6,82.6c-6.8,0-11.1-3.2-13.2-7.4l5.9-3.4
		c1.6,2.5,3.6,4.4,7.2,4.4c3,0,4.9-1.5,4.9-3.6c0-2.5-2-3.4-5.3-4.8L68.3,67c-5.2-2.2-8.7-5-8.7-11c0-5.5,4.2-9.6,10.6-9.6
		c4.6,0,7.9,1.6,10.3,5.8l-5.7,3.6c-1.2-2.2-2.6-3.1-4.7-3.1s-3.5,1.3-3.5,3.1c0,2.2,1.3,3.1,4.5,4.4l1.8,0.8
		c6.2,2.6,9.7,5.3,9.7,11.4C82.6,79,77.5,82.6,70.6,82.6L70.6,82.6z"/>
</g>
<g id="Layer_2_1_">
</g>
</svg>
