<?xml version="1.0" encoding="utf-8"?>
<!-- Generator: Adobe Illustrator 25.2.0, SVG Export Plug-In . SVG Version: 6.00 Build 0)  -->
<svg version="1.1" xmlns="http://www.w3.org/2000/svg" xmlns:xlink="http://www.w3.org/1999/xlink" x="0px" y="0px"
	 viewBox="0 0 100 100" style="enable-background:new 0 0 100 100;" xml:space="preserve">
<style type="text/css">
	.st0{fill:#7192A3;}
	.st1{fill:#124966;}
	.st2{fill-rule:evenodd;clip-rule:evenodd;fill:#7192A3;}
</style>
<g id="Layer_1">
	<path class="st0" d="M81.91,21.92H18.08c-4.07,0-7.36,3.29-7.36,7.36v44.2c0,4.07,3.29,7.36,7.36,7.36h63.83
		c4.07,0,7.37-3.29,7.37-7.36v-44.2C89.28,25.21,85.98,21.92,81.91,21.92z M18.08,44.99c3.02,2.4,7.1,5.62,12.98,10.24
		c-5.88,4.62-9.96,7.84-12.98,10.24V44.99z M19.85,73.48c3.31-2.66,8.32-6.64,17.11-13.52c3.39,2.78,8.01,6.17,13.04,6.15
		c5.03,0.02,9.61-3.35,13.04-6.15c8.79,6.88,13.79,10.86,17.11,13.52H19.85z M81.91,65.47c-3.01-2.4-7.1-5.62-12.98-10.24
		c5.88-4.62,9.98-7.84,12.98-10.24V65.47z M81.91,35.54c-3.26,2.65-8.36,6.72-18.88,14.96c-0.57,0.45-1.17,0.9-1.77,1.38
		c-1.04,0.82-2.5,2.11-4.1,3.35c-2.37,1.83-5.04,3.54-7.16,3.52c-2.11,0.03-4.79-1.69-7.15-3.52h-0.01c-1.6-1.25-3.05-2.53-4.1-3.35
		c-0.61-0.48-1.2-0.94-1.77-1.38c-10.51-8.24-15.62-12.31-18.88-14.96v-6.26h63.83V35.54z"/>
</g>
<g id="Layer_2">
</g>
</svg>
