<?xml version="1.0" encoding="utf-8"?>
<!-- Generator: Adobe Illustrator 25.2.0, SVG Export Plug-In . SVG Version: 6.00 Build 0)  -->
<svg version="1.1" id="Layer_1" xmlns="http://www.w3.org/2000/svg" xmlns:xlink="http://www.w3.org/1999/xlink" x="0px" y="0px"
	 viewBox="0 0 100 100" style="enable-background:new 0 0 100 100;" xml:space="preserve">
<style type="text/css">
	.st0{fill-rule:evenodd;clip-rule:evenodd;fill:#66A99E;}
</style>
<g id="Layer_1_1_">
	<g>
		<path class="st0" d="M56.7,66.3c8.3-1,17.1-4,17.1-18.3c0-4.1-1.4-7.4-3.8-9.9c0.4-1,1.6-4.7-0.4-9.8c0,0-3-1-10.1,3.8
			c-3-0.8-6.3-1.4-9.4-1.4c-3.2,0-6.5,0.5-9.4,1.4c-7.2-4.7-10.2-3.8-10.2-3.8c-2,5.1-0.8,8.8-0.5,9.8c-2.3,2.6-3.8,5.9-3.8,9.9
			c0,14.3,8.8,17.3,17.1,18.3c-1,0.9-2,2.6-2.4,5c-2.1,0.9-7.6,2.6-10.9-3.1c0,0-2-3.5-5.6-3.8c0,0-3.7-0.1-0.3,2.3
			c0,0,2.5,1.1,4.1,5.4c0,0,2.3,7.2,12.7,4.9v6.4c0,1-0.8,2.1-2.6,1.8C23.5,80.4,12.9,66.4,12.9,50c0-20.5,16.6-37.2,37.2-37.2
			c20.5,0,37.2,16.6,37.1,37.2c0,16.4-10.6,30.3-25.4,35.3c-1.9,0.4-2.6-0.8-2.6-1.8V73.2C59.2,69.7,58,67.4,56.7,66.3L56.7,66.3z
			 M92.5,50C92.5,26.5,73.4,7.5,50,7.5C26.5,7.5,7.5,26.5,7.5,50c0,23.4,19,42.5,42.5,42.5C73.4,92.5,92.5,73.4,92.5,50L92.5,50z"/>
	</g>
</g>
<g id="Layer_2_1_">
</g>
</svg>
