<?xml version="1.0" encoding="utf-8"?>
<!-- Generator: Adobe Illustrator 25.2.0, SVG Export Plug-In . SVG Version: 6.00 Build 0)  -->
<svg version="1.1" id="Layer_1" xmlns="http://www.w3.org/2000/svg" xmlns:xlink="http://www.w3.org/1999/xlink" x="0px" y="0px"
	 viewBox="0 0 100 100" style="enable-background:new 0 0 100 100;" xml:space="preserve">
<style type="text/css">
	.st0{fill:#66A99E;}
</style>
<g id="Layer_1_1_">
	<g>
		<g>
			<path class="st0" d="M49.2,57.3c0,0.5-0.2,1-0.5,1.3s-0.8,0.5-1.3,0.5s-1-0.2-1.3-0.5s-0.5-0.8-0.5-1.3s0.2-1,0.5-1.3
				s0.8-0.5,1.3-0.5s1,0.2,1.3,0.5C49,56.4,49.2,56.8,49.2,57.3z"/>
			<path class="st0" d="M86,13.2v10.6h-3.7V13.2c0-2-1.7-3.7-3.7-3.7H16.1c-2,0-3.7,1.6-3.7,3.7V50h37.7v3.7H12.5v3.7
				c0,2,1.7,3.7,3.7,3.7h34v3.7h-6.7L42.2,72h7.9v3.7H32.7c-1,0-1.8-0.8-1.8-1.8s0.8-1.8,1.8-1.8h5.8l1.2-7.4H16.1
				c-4.1,0-7.4-3.3-7.4-7.3V13.2c0-4.1,3.3-7.4,7.4-7.4h62.5C82.7,5.8,86,9.1,86,13.2z"/>
		</g>
		<g>
			<path class="st0" d="M78.7,31.4H65.2c-0.9,0-1.7,0.7-1.7,1.7c0,0.9,0.7,1.7,1.7,1.7h13.5c0.9,0,1.7-0.7,1.7-1.7
				C80.4,32.1,79.7,31.4,78.7,31.4z"/>
			<path class="st0" d="M73.3,85.4h-2.7c-0.9,0-1.7,0.7-1.7,1.7c0,0.9,0.7,1.7,1.7,1.7h2.7c0.9,0,1.7-0.7,1.7-1.7
				C75,86.2,74.2,85.4,73.3,85.4z"/>
			<path class="st0" d="M84.2,26H59.8c-3.9,0-7.1,3.2-7.1,7.1v54.1c0,3.9,3.2,7.1,7.1,7.1h24.3c3.9,0,7.1-3.2,7.1-7.1V33
				C91.2,29.1,88,26,84.2,26z M84.2,90.9H59.8c-2.1,0-3.8-1.7-3.8-3.8V33c0-2.1,1.7-3.8,3.8-3.8h24.3c2.1,0,3.8,1.7,3.8,3.8v54.1
				C87.9,89.2,86.2,90.9,84.2,90.9z"/>
		</g>
	</g>
</g>
<g id="Layer_2_1_">
</g>
</svg>
