<?xml version="1.0" encoding="utf-8"?>
<!-- Generator: Adobe Illustrator 25.2.0, SVG Export Plug-In . SVG Version: 6.00 Build 0)  -->
<svg version="1.1" id="Layer_1" xmlns="http://www.w3.org/2000/svg" xmlns:xlink="http://www.w3.org/1999/xlink" x="0px" y="0px"
	 viewBox="0 0 100 100" style="enable-background:new 0 0 100 100;" xml:space="preserve">
<style type="text/css">
	.st0{fill:#66A99E;}
</style>
<g id="Layer_1_1_">
	<g id="_x31_37-Creativecloud_x2C__creative_cloud_x2C__CC_x2C__adobe_2_">
		<g>
			<g>
				<g>
					<path class="st0" d="M60.9,17.2c-9.8,0-18.6,4.4-24.6,11.2c-0.9-0.1-1.8-0.3-2.7-0.3c-15,0-27.2,12.2-27.2,27.3
						s12.2,27.3,27.2,27.3h27.2C79,82.8,93.6,68.1,93.6,50S79,17.2,60.9,17.2z M33.7,77.3c-12,0-21.8-9.8-21.8-21.9
						c0-12,9.8-21.8,21.8-21.8c2.4,0,4.8,0.4,7.1,1.2c1.3,0.3,2.8,1,4.3,2l0.1,0.1l17.2,10.8c1.3,0.8,1.7,2.5,0.8,3.8
						c-0.8,1.3-2.5,1.7-3.8,0.9l-17-10.7c0,0-0.1-0.1-0.2-0.1c-1.1-0.7-2.2-1.2-3.2-1.5C27.8,36,17.3,44.6,17.3,55.5
						c0,9,7.3,16.4,16.4,16.4c0.9,0,1.8-0.1,2.7-0.2c1.4,1.6,2.9,3,4.7,4.4C38.7,76.8,36.2,77.3,33.7,77.3z M60.9,77.3
						c-5.9,0-11.5-1.9-16.2-5.4c-1.8-1.4-3.4-2.8-4.7-4.4c0-0.1-0.1-0.1-0.1-0.2l-8.3-10.1c-1-1.2-0.8-2.9,0.4-3.8
						c1.2-1,2.9-0.8,3.8,0.4l8.1,9.9c0.1,0.1,0.1,0.2,0.2,0.2c1,1.3,2.3,2.5,3.8,3.7c3.8,2.8,8.3,4.3,13,4.3
						c12,0,21.8-9.8,21.8-21.9s-9.8-21.9-21.8-21.9c-4.7,0-9.1,1.5-12.8,4.1l0,0c-0.1-0.1-0.2-0.1-0.3-0.2c-1.7-1.1-3.5-1.9-5.2-2.4
						c4.9-4.5,11.3-7.1,18.2-7.1c15,0,27.3,12.3,27.3,27.3S75.9,77.3,60.9,77.3z"/>
				</g>
			</g>
		</g>
	</g>
</g>
<g id="Layer_2_1_">
</g>
</svg>
