<?xml version="1.0" encoding="utf-8"?>
<!-- Generator: Adobe Illustrator 25.2.0, SVG Export Plug-In . SVG Version: 6.00 Build 0)  -->
<svg version="1.1" xmlns="http://www.w3.org/2000/svg" xmlns:xlink="http://www.w3.org/1999/xlink" x="0px" y="0px"
	 viewBox="0 0 100 100" style="enable-background:new 0 0 100 100;" xml:space="preserve">
<style type="text/css">
	.st0{fill:#7192A3;}
	.st1{fill:#124966;}
	.st2{fill-rule:evenodd;clip-rule:evenodd;fill:#7192A3;}
</style>
<g id="Layer_1">
	<g>
		<path class="st0" d="M50,14.35c-19.69,0-35.65,15.96-35.65,35.65c0,19.68,15.96,35.64,35.65,35.64
			c19.68,0,35.64-15.96,35.64-35.64C85.64,30.31,69.68,14.35,50,14.35z M50,25.16c2.74,0,4.96,2.22,4.96,4.96
			c0,2.75-2.22,4.97-4.96,4.97c-2.75,0-4.97-2.22-4.97-4.97C45.03,27.38,47.25,25.16,50,25.16z M72.35,42.54H57.45v32.3h-4.97V59.93
			h-4.96v14.91h-4.97v-32.3H27.63v-4.96h44.72V42.54z"/>
		<path class="st0" d="M50,7.5C26.56,7.5,7.5,26.56,7.5,50c0,23.42,19.06,42.5,42.5,42.5c23.42,0,42.5-19.08,42.5-42.5
			C92.5,26.56,73.42,7.5,50,7.5z M50,88.77c-21.39,0-38.79-17.39-38.79-38.77c0-21.39,17.39-38.79,38.79-38.79
			c21.38,0,38.77,17.39,38.77,38.79C88.77,71.38,71.38,88.77,50,88.77z"/>
	</g>
</g>
<g id="Layer_2">
</g>
</svg>
