<?xml version="1.0" encoding="utf-8"?>
<!-- Generator: Adobe Illustrator 25.2.0, SVG Export Plug-In . SVG Version: 6.00 Build 0)  -->
<svg version="1.1" xmlns="http://www.w3.org/2000/svg" xmlns:xlink="http://www.w3.org/1999/xlink" x="0px" y="0px"
	 viewBox="0 0 100 100" style="enable-background:new 0 0 100 100;" xml:space="preserve">
<style type="text/css">
	.st0{fill:#7192A3;}
	.st1{fill:#124966;}
	.st2{fill-rule:evenodd;clip-rule:evenodd;fill:#7192A3;}
</style>
<g id="Layer_1">
	<g>
		<path class="st0" d="M36.47,27.35c1.87-2.15,2.87-4.84,2.87-7.71C39.3,13.18,34.03,7.86,27.52,7.86s-11.83,5.32-11.83,11.78
			c0,2.87,1.01,5.6,2.87,7.71C12.1,30.22,7.84,36.74,7.84,43.78v2.87h39.31v-2.83C47.15,36.74,42.89,30.22,36.47,27.35z M25.8,30.32
			h3.35c6.8,0,12.55,5.12,13.36,11.78H12.44C13.3,35.49,19.04,30.32,25.8,30.32z M27.52,12.36c4.02,0,7.33,3.26,7.33,7.33
			s-3.3,7.28-7.33,7.28s-7.33-3.26-7.33-7.33S23.5,12.36,27.52,12.36z"/>
		<path class="st0" d="M81.39,72.89c1.87-2.15,2.87-4.84,2.87-7.71c0-6.51-5.32-11.78-11.78-11.78c-6.46,0-11.78,5.31-11.78,11.78
			c0,2.87,1.01,5.6,2.87,7.71c-6.46,2.87-10.73,9.39-10.73,16.42v2.83h39.31v-2.83C92.11,82.23,87.85,75.76,81.39,72.89z
			 M72.43,57.85c4.02,0,7.33,3.26,7.33,7.33c0,4.02-3.26,7.33-7.33,7.33s-7.33-3.26-7.33-7.33C65.15,61.16,68.41,57.85,72.43,57.85z
			 M70.76,75.86h3.35c6.8,0,12.55,5.12,13.36,11.78H57.4C58.21,80.98,64.01,75.86,70.76,75.86z"/>
		<path class="st0" d="M47.44,75.86h-11.2c-3.4,0-6.18-2.78-6.18-6.18V58.24l4.6,4.6c0.43,0.43,1.01,0.67,1.58,0.67
			s1.15-0.24,1.58-0.67c0.86-0.86,0.86-2.3,0-3.16l-8.43-8.48c-0.86-0.86-2.3-0.86-3.16,0l-8.43,8.43c-0.86,0.86-0.86,2.3,0,3.16
			c0.86,0.86,2.3,0.86,3.16,0l4.6-4.6v11.44c0,5.89,4.79,10.68,10.68,10.68h11.25c1.24,0,2.25-1.01,2.25-2.25
			S48.68,75.86,47.44,75.86z"/>
		<path class="st0" d="M82.73,37.17c-0.86-0.86-2.3-0.86-3.16,0l-4.6,4.6V31.47c0-5.89-4.79-10.73-10.73-10.73H50.26
			c-1.24,0-2.25,1.01-2.25,2.25s1.01,2.25,2.25,2.25h14.03c3.45,0,6.22,2.78,6.22,6.22v10.29l-4.6-4.6c-0.86-0.86-2.3-0.86-3.16,0
			s-0.86,2.3,0,3.16l8.43,8.43c0.43,0.43,1.01,0.67,1.58,0.67s1.15-0.24,1.58-0.67l8.43-8.43C83.64,39.47,83.64,38.03,82.73,37.17z"
			/>
	</g>
</g>
<g id="Layer_2">
</g>
</svg>
