<?xml version="1.0" encoding="utf-8"?>
<!-- Generator: Adobe Illustrator 25.2.0, SVG Export Plug-In . SVG Version: 6.00 Build 0)  -->
<svg version="1.1" xmlns="http://www.w3.org/2000/svg" xmlns:xlink="http://www.w3.org/1999/xlink" x="0px" y="0px"
	 viewBox="0 0 100 100" style="enable-background:new 0 0 100 100;" xml:space="preserve">
<style type="text/css">
	.st0{fill:#7192A3;}
	.st1{fill:#124966;}
	.st2{fill-rule:evenodd;clip-rule:evenodd;fill:#7192A3;}
</style>
<g id="Layer_1">
	<g>
		<path class="st2" d="M56.66,66.3c8.28-0.98,17.09-3.99,17.09-18.29c0-4.07-1.43-7.38-3.76-9.94c0.38-0.98,1.58-4.67-0.45-9.79
			c0,0-3.01-0.98-10.09,3.76c-3.01-0.83-6.32-1.36-9.41-1.36c-3.16,0-6.48,0.53-9.41,1.36c-7.15-4.74-10.16-3.76-10.16-3.76
			c-2.03,5.12-0.83,8.81-0.45,9.79c-2.33,2.56-3.76,5.87-3.76,9.94c0,14.3,8.81,17.32,17.09,18.29c-1.05,0.91-2.03,2.64-2.41,5.04
			c-2.11,0.9-7.6,2.64-10.92-3.09c0,0-1.96-3.54-5.65-3.76c0,0-3.69-0.08-0.3,2.26c0,0,2.48,1.13,4.14,5.42
			c0,0,2.26,7.15,12.65,4.89v6.4c0,0.98-0.75,2.11-2.63,1.81c-14.76-4.89-25.37-18.9-25.37-35.31c0-20.55,16.64-37.19,37.19-37.19
			c20.48,0,37.19,16.64,37.12,37.19c0,16.41-10.62,30.34-25.37,35.31c-1.88,0.38-2.64-0.75-2.64-1.81V73.15
			C59.15,69.69,58.02,67.43,56.66,66.3L56.66,66.3z M92.5,50.04C92.5,26.55,73.45,7.5,50.04,7.5C26.55,7.5,7.5,26.55,7.5,50.04
			c0,23.41,19.05,42.46,42.54,42.46C73.45,92.5,92.5,73.45,92.5,50.04L92.5,50.04z"/>
	</g>
</g>
<g id="Layer_2">
</g>
</svg>
