<?xml version="1.0" encoding="utf-8"?>
<!-- Generator: Adobe Illustrator 25.2.0, SVG Export Plug-In . SVG Version: 6.00 Build 0)  -->
<svg version="1.1" xmlns="http://www.w3.org/2000/svg" xmlns:xlink="http://www.w3.org/1999/xlink" x="0px" y="0px"
	 viewBox="0 0 100 100" style="enable-background:new 0 0 100 100;" xml:space="preserve">
<style type="text/css">
	.st0{fill:#7192A3;}
	.st1{fill:#124966;}
	.st2{fill-rule:evenodd;clip-rule:evenodd;fill:#7192A3;}
</style>
<g id="Layer_1">
	<path class="st0" d="M22.35,62.52l8.06-51.87c0.15-1.01,1.1-1.7,2.1-1.55c0.58,0.09,1.08,0.45,1.36,0.96l8.67,16.27L22.35,62.52z
		 M79.61,75.11l-7.68-47.73c-0.17-1.01-1.13-1.69-2.13-1.52c-0.38,0.06-0.73,0.24-1,0.51L20.39,75.11l26.79,15.1
		c1.68,0.94,3.73,0.94,5.41,0C52.59,90.21,79.61,75.11,79.61,75.11z M57.84,33.46l-6.21-11.87c-0.47-0.9-1.59-1.25-2.49-0.78
		c-0.33,0.17-0.6,0.45-0.78,0.78L21.12,70.4L57.84,33.46z"/>
</g>
<g id="Layer_2">
</g>
</svg>
