<?xml version="1.0" encoding="utf-8"?>
<!-- Generator: Adobe Illustrator 25.2.0, SVG Export Plug-In . SVG Version: 6.00 Build 0)  -->
<svg version="1.1" xmlns="http://www.w3.org/2000/svg" xmlns:xlink="http://www.w3.org/1999/xlink" x="0px" y="0px"
	 viewBox="0 0 100 100" style="enable-background:new 0 0 100 100;" xml:space="preserve">
<style type="text/css">
	.st0{fill:#7192A3;}
	.st1{fill:#124966;}
	.st2{fill-rule:evenodd;clip-rule:evenodd;fill:#7192A3;}
</style>
<g id="Layer_1">
	<g>
		<path class="st0" d="M78.84,27.38l2.43-2.43c1.47-1.47,1.46-3.84,0-5.31c-1.47-1.46-3.84-1.46-5.31,0l-2.43,2.43
			c-2.7-0.78-5.61-0.03-7.61,1.95L22.07,67.88c-0.17,0.17-0.3,0.38-0.37,0.61l-4.39,13.16c-0.26,0.81,0.18,1.69,1,1.95
			c0.31,0.1,0.64,0.1,0.95,0l13.16-4.39c0.23-0.07,0.44-0.2,0.61-0.37l43.85-43.85c1.46-1.46,2.28-3.44,2.28-5.5
			C79.15,28.77,79.04,28.07,78.84,27.38z M78.16,21.83c0.25-0.25,0.67-0.25,0.92,0c0.25,0.25,0.25,0.67,0,0.92l0,0l-1.73,1.73
			l-0.46-0.46l-0.46-0.46L78.16,21.83z M31.11,76.39l-9.87,3.29l3.29-9.87l43.59-43.59c1.4-1.37,3.5-1.72,5.26-0.88
			c0.77,0.33,1.43,0.87,1.9,1.57c0.16,0.24,0.3,0.49,0.41,0.76c0.79,1.75,0.39,3.8-0.99,5.13L31.11,76.39z"/>
		<path class="st0" d="M73.06,27.86c-0.61-0.61-1.59-0.61-2.19,0L26.55,72.17c-0.61,0.61-0.61,1.59,0,2.19
			c0.61,0.61,1.59,0.61,2.19,0l44.31-44.31C73.66,29.44,73.66,28.46,73.06,27.86z"/>
	</g>
</g>
<g id="Layer_2">
</g>
</svg>
