<?xml version="1.0" encoding="utf-8"?>
<!-- Generator: Adobe Illustrator 25.2.0, SVG Export Plug-In . SVG Version: 6.00 Build 0)  -->
<svg version="1.1" xmlns="http://www.w3.org/2000/svg" xmlns:xlink="http://www.w3.org/1999/xlink" x="0px" y="0px"
	 viewBox="0 0 100 100" style="enable-background:new 0 0 100 100;" xml:space="preserve">
<style type="text/css">
	.st0{fill:#7192A3;}
	.st1{fill:#124966;}
	.st2{fill-rule:evenodd;clip-rule:evenodd;fill:#7192A3;}
</style>
<g id="Layer_1">
	<g id="_x31_37-Creativecloud_x2C__creative_cloud_x2C__CC_x2C__adobe_2_">
		<g>
			<g>
				<g>
					<path class="st0" d="M60.89,17.22c-9.8,0-18.57,4.35-24.56,11.21c-0.89-0.1-1.75-0.28-2.67-0.28
						c-15.05,0-27.25,12.23-27.25,27.32s12.2,27.32,27.25,27.32h27.23c18.07,0,32.7-14.68,32.7-32.78
						C93.59,31.9,78.96,17.22,60.89,17.22z M33.66,77.32c-12.02,0-21.8-9.8-21.8-21.86c0-12.05,9.77-21.85,21.8-21.85
						c2.43,0,4.83,0.42,7.13,1.25c1.26,0.35,2.76,1.03,4.28,1.98c0.05,0.04,0.1,0.06,0.14,0.09l17.15,10.76
						c1.26,0.8,1.66,2.48,0.85,3.76c-0.79,1.29-2.47,1.68-3.76,0.88L42.43,41.65c-0.05-0.04-0.11-0.06-0.15-0.1
						c-1.12-0.7-2.17-1.21-3.15-1.48C27.75,36,17.31,44.62,17.31,55.46c0,9.03,7.33,16.4,16.35,16.4c0.91,0,1.83-0.1,2.72-0.25
						c1.37,1.58,2.9,3.04,4.67,4.39C38.71,76.84,36.22,77.32,33.66,77.32z M60.89,77.32c-5.89,0-11.5-1.87-16.22-5.4
						c-1.84-1.37-3.39-2.82-4.71-4.45c-0.05-0.05-0.1-0.1-0.14-0.16l-8.28-10.12c-0.95-1.16-0.79-2.89,0.38-3.84
						c1.16-0.96,2.88-0.79,3.83,0.38l8.12,9.92c0.07,0.07,0.14,0.15,0.2,0.22c1.04,1.32,2.3,2.52,3.83,3.65
						c3.79,2.84,8.28,4.34,12.99,4.34c12.02,0,21.8-9.81,21.8-21.86s-9.77-21.85-21.8-21.85c-4.72,0-9.14,1.5-12.79,4.15h-0.01
						c-0.09-0.06-0.17-0.11-0.26-0.16c-1.72-1.06-3.45-1.85-5.16-2.4c4.92-4.49,11.31-7.07,18.23-7.07
						c15.03,0,27.25,12.26,27.25,27.32S75.92,77.32,60.89,77.32z"/>
				</g>
			</g>
		</g>
	</g>
</g>
<g id="Layer_2">
</g>
</svg>
