<?xml version="1.0" encoding="utf-8"?>
<!-- Generator: Adobe Illustrator 25.2.0, SVG Export Plug-In . SVG Version: 6.00 Build 0)  -->
<svg version="1.1" id="Layer_1" xmlns="http://www.w3.org/2000/svg" xmlns:xlink="http://www.w3.org/1999/xlink" x="0px" y="0px"
	 viewBox="0 0 100 100" style="enable-background:new 0 0 100 100;" xml:space="preserve">
<style type="text/css">
	.st0{fill:#79A4A5;}
</style>
<g id="Layer_1_1_">
	<path class="st0" d="M26.3,34.1c-4.2,0-7.6-3.5-7.6-7.7s3.4-7.7,7.6-7.7s7.6,3.5,7.6,7.7C34,30.6,30.6,34.1,26.3,34.1 M32.9,81.3
		h-13V39.6h12.9L32.9,81.3L32.9,81.3z M41.1,81.3V39.6h12.4v5.6c0,0,3.7-6.9,12.6-6.9s15.2,5.4,15.2,16.6v26.4H68.4V59.4
		c0-6-2.3-9.4-7-9.4c-5.2,0-7.9,3.5-7.9,9.4v21.9H41.1z"/>
</g>
<g id="Layer_2_1_">
</g>
</svg>
