<?xml version="1.0" encoding="utf-8"?>
<!-- Generator: Adobe Illustrator 25.2.0, SVG Export Plug-In . SVG Version: 6.00 Build 0)  -->
<svg version="1.1" xmlns="http://www.w3.org/2000/svg" xmlns:xlink="http://www.w3.org/1999/xlink" x="0px" y="0px"
	 viewBox="0 0 100 100" style="enable-background:new 0 0 100 100;" xml:space="preserve">
<style type="text/css">
	.st0{fill:#7192A3;}
	.st1{fill:#124966;}
	.st2{fill-rule:evenodd;clip-rule:evenodd;fill:#7192A3;}
</style>
<g id="Layer_1">
	<g>
		<path class="st0" d="M84.42,11.53H15.58c-4.47,0-8.1,3.63-8.1,8.1v48.6c0,4.47,3.63,8.1,8.1,8.1h25.96l-1.35,8.1H33.8
			c-1.12,0-2.02,0.91-2.02,2.02c0,1.12,0.91,2.02,2.02,2.02h24.3c0.01,0,0.03,0,0.04,0h8.06c1.12,0,2.02-0.91,2.02-2.02
			c0-1.12-0.91-2.02-2.02-2.02h-6.38l-1.35-8.1h25.96c4.47,0,8.1-3.63,8.1-8.1v-48.6C92.52,15.16,88.89,11.53,84.42,11.53z
			 M44.29,84.42l1.35-8.1h8.72l1.35,8.1H44.29z M88.47,68.22c0,2.23-1.82,4.05-4.05,4.05H15.58c-2.23,0-4.05-1.82-4.05-4.05v-4.05
			h76.94V68.22z M88.47,60.12H11.53v-40.5c0-2.23,1.82-4.05,4.05-4.05h68.84c2.23,0,4.05,1.82,4.05,4.05V60.12z M50,70.25
			c0.53,0,1.05-0.22,1.44-0.59c0.36-0.38,0.59-0.91,0.59-1.44c0-0.53-0.22-1.05-0.59-1.44c-0.77-0.75-2.11-0.75-2.88,0
			c-0.36,0.38-0.59,0.91-0.59,1.44c0,0.53,0.22,1.05,0.59,1.44C48.95,70.02,49.47,70.25,50,70.25z M69.91,22.55
			c-0.75-1.13-2.62-1.13-3.37,0l-8.1,12.15c-0.22,0.33-0.34,0.72-0.34,1.12v16.2c0,1.12,0.91,2.02,2.02,2.02
			c1.12,0,2.02-0.91,2.02-2.02V39.88h4.05v12.15c0,1.12,0.91,2.02,2.02,2.02c1.12,0,2.02-0.91,2.02-2.02V39.88h4.05v12.15
			c0,1.12,0.91,2.02,2.02,2.02s2.02-0.91,2.02-2.02v-16.2c0-0.4-0.12-0.79-0.34-1.12L69.91,22.55z M62.56,35.83l4.05-6.07h3.23
			l4.05,6.07H62.56z M47.98,25.7h-24.3c-1.12,0-2.02,0.91-2.02,2.02c0,1.12,0.91,2.02,2.02,2.02h24.3c1.12,0,2.02-0.91,2.02-2.02
			C50,26.61,49.09,25.7,47.98,25.7z M47.98,35.83h-24.3c-1.12,0-2.02,0.91-2.02,2.02s0.91,2.02,2.02,2.02h24.3
			c1.12,0,2.02-0.91,2.02-2.02S49.09,35.83,47.98,35.83z M37.85,45.95H23.68c-1.12,0-2.02,0.91-2.02,2.02
			c0,1.12,0.91,2.02,2.02,2.02h14.17c1.12,0,2.02-0.91,2.02-2.02C39.88,46.86,38.97,45.95,37.85,45.95z"/>
	</g>
</g>
<g id="Layer_2">
</g>
</svg>
