<?xml version="1.0" encoding="utf-8"?>
<!-- Generator: Adobe Illustrator 25.2.0, SVG Export Plug-In . SVG Version: 6.00 Build 0)  -->
<svg version="1.1" id="Layer_1" xmlns="http://www.w3.org/2000/svg" xmlns:xlink="http://www.w3.org/1999/xlink" x="0px" y="0px"
	 viewBox="0 0 100 100" style="enable-background:new 0 0 100 100;" xml:space="preserve">
<style type="text/css">
	.st0{fill:#66A99E;}
</style>
<g id="Layer_1_1_">
	<g>
		<path class="st0" d="M36.5,27.4c1.9-2.1,2.9-4.8,2.9-7.7c0-6.5-5.3-11.8-11.8-11.8s-11.8,5.3-11.8,11.8c0,2.9,1,5.6,2.9,7.7
			C12.2,30.3,8,36.8,8,43.8v2.9h39.3v-2.8C47.2,36.7,42.9,30.2,36.5,27.4z M25.8,30.3h3.4c6.8,0,12.6,5.1,13.4,11.8H12.4
			C13.3,35.5,19,30.3,25.8,30.3z M27.5,12.4c4,0,7.3,3.3,7.3,7.3S31.5,27,27.5,27s-7.3-3.3-7.3-7.3S23.5,12.4,27.5,12.4z"/>
		<path class="st0" d="M81.4,72.9c1.9-2.2,2.9-4.8,2.9-7.7c0-6.5-5.3-11.8-11.8-11.8s-11.8,5.3-11.8,11.8c0,2.9,1,5.6,2.9,7.7
			c-6.5,2.9-10.7,9.4-10.7,16.4v2.8h39.3v-2.8C92.1,82.2,87.8,75.8,81.4,72.9z M72.4,57.8c4,0,7.3,3.3,7.3,7.3s-3.3,7.3-7.3,7.3
			s-7.3-3.3-7.3-7.3C65.2,61.2,68.4,57.8,72.4,57.8z M70.8,75.9h3.3c6.8,0,12.6,5.1,13.4,11.8H57.4C58.2,81,64,75.9,70.8,75.9z"/>
		<path class="st0" d="M47.4,75.9H36.2c-3.4,0-6.2-2.8-6.2-6.2V58.2l4.6,4.6c0.4,0.4,1,0.7,1.6,0.7s1.2-0.2,1.6-0.7
			c0.9-0.9,0.9-2.3,0-3.2l-8.4-8.5c-0.9-0.9-2.3-0.9-3.2,0l-8.4,8.4c-0.9,0.9-0.9,2.3,0,3.2s2.3,0.9,3.2,0l4.6-4.6v11.4
			c0,5.9,4.8,10.7,10.7,10.7h11.2c1.2,0,2.2-1,2.2-2.2S48.7,75.9,47.4,75.9z"/>
		<path class="st0" d="M82.7,37.2c-0.9-0.9-2.3-0.9-3.2,0L75,41.8V31.5c0-5.9-4.8-10.7-10.7-10.7h-14c-1.2,0-2.2,1-2.2,2.2
			s1,2.2,2.2,2.2h14c3.4,0,6.2,2.8,6.2,6.2v10.3l-4.6-4.6c-0.9-0.9-2.3-0.9-3.2,0s-0.9,2.3,0,3.2l8.4,8.4c0.4,0.4,1,0.7,1.6,0.7
			s1.2-0.2,1.6-0.7l8.4-8.4C83.6,39.5,83.6,38,82.7,37.2z"/>
	</g>
</g>
<g id="Layer_2_1_">
</g>
</svg>
